<svg xmlns="http://www.w3.org/2000/svg" width="26" height="29" viewBox="0 0 26 29" fill="none">
  <g clip-path="url(#clip0_2712_891)">
    <path d="M12.211 6.68359C7.02984 6.68359 2.60517 9.90625 0.8125 14.4553C2.60517 19.0043 7.02984 22.2269 12.211 22.2269C17.3921 22.2269 21.8168 19.0043 23.6094 14.4553C21.8168 9.90625 17.3921 6.68359 12.211 6.68359ZM12.211 19.6364C9.35098 19.6364 7.02984 17.3152 7.02984 14.4553C7.02984 11.5953 9.35098 9.27415 12.211 9.27415C15.0709 9.27415 17.3921 11.5953 17.3921 14.4553C17.3921 17.3152 15.0709 19.6364 12.211 19.6364ZM12.211 11.3466C10.4908 11.3466 9.10229 12.7351 9.10229 14.4553C9.10229 16.1754 10.4908 17.5639 12.211 17.5639C13.9311 17.5639 15.3196 16.1754 15.3196 14.4553C15.3196 12.7351 13.9311 11.3466 12.211 11.3466Z" fill="url(#paint0_linear_2712_891)"/>
  </g>
  <defs>
    <linearGradient id="paint0_linear_2712_891" x1="17.387" y1="5.90862" x2="16.1047" y2="22.2615" gradientUnits="userSpaceOnUse">
      <stop stop-color="#B31DC5"/>
      <stop offset="1" stop-color="#590E59"/>
    </linearGradient>
    <clipPath id="clip0_2712_891">
      <rect width="29.4506" height="29.4506" fill="white" transform="translate(-0.40625 -0.267578)"/>
    </clipPath>
  </defs>
</svg>